<?xml version="1.0" standalone="no"?>
<!DOCTYPE svg PUBLIC "-//W3C//DTD SVG 20010904//EN"
 "http://www.w3.org/TR/2001/REC-SVG-20010904/DTD/svg10.dtd">
<svg version="1.0" xmlns="http://www.w3.org/2000/svg"
 width="512.000000pt" height="512.000000pt" viewBox="0 0 512.000000 512.000000"
 preserveAspectRatio="xMidYMid meet">
<metadata>
Created by potrace 1.11, written by Peter Selinger 2001-2013
</metadata>
<g transform="translate(0.000000,512.000000) scale(0.100000,-0.100000)"
fill="#000000" stroke="none">
<path d="M3888 4165 c-4 -4 -466 -13 -745 -14 -198 -1 -227 -8 -160 -36 19 -8
39 -21 47 -29 7 -9 18 -16 25 -16 18 0 170 -145 202 -193 32 -48 62 -109 73
-146 l7 -26 329 0 c361 0 365 -1 479 -65 138 -79 207 -220 198 -405 -11 -216
-133 -355 -350 -400 -66 -13 -150 -16 -1089 -30 -333 -5 -396 9 -504 115 -149
145 -177 439 -58 612 10 14 18 29 18 33 0 8 -474 5 -487 -4 -9 -6 -21 -46 -43
-147 -14 -63 -18 -226 -7 -319 10 -96 59 -246 107 -330 67 -119 177 -222 312
-294 72 -39 194 -84 253 -94 17 -3 53 -10 80 -16 54 -12 740 -7 1340 9 49 2
103 6 120 11 16 4 44 10 60 12 95 14 260 82 356 147 127 86 232 219 287 364
71 186 77 453 16 665 -34 120 -122 270 -201 342 -99 92 -289 192 -403 214 -4
1 -59 13 -100 21 -8 2 -42 6 -75 9 -33 4 -65 8 -72 10 -6 2 -13 2 -15 0z"/>
<path d="M2027 4143 c-1 0 -186 -4 -412 -8 -529 -8 -564 -11 -734 -69 -77 -27
-212 -95 -237 -121 -9 -8 -19 -15 -24 -15 -14 0 -130 -125 -167 -181 -88 -130
-134 -288 -138 -474 -7 -307 78 -537 260 -702 47 -44 167 -124 181 -122 3 0
15 -6 27 -14 36 -23 166 -64 262 -83 91 -17 364 -20 810 -9 83 2 185 4 228 4
42 1 77 5 77 9 0 5 -19 19 -42 32 -158 88 -293 234 -329 355 -7 25 -18 45 -24
46 -5 1 -147 1 -315 0 -345 -1 -386 5 -501 75 -122 74 -180 195 -181 374 0
203 99 342 289 406 87 30 29 27 793 40 679 11 655 12 754 -34 146 -69 236
-228 237 -417 0 -115 -40 -246 -85 -284 -9 -7 -14 -17 -11 -21 2 -4 55 -6 117
-4 62 1 173 3 246 3 154 1 138 -11 169 133 20 97 22 291 4 385 -23 123 -52
198 -115 303 -85 143 -213 247 -391 321 -17 7 -32 13 -35 14 -3 0 -21 6 -40
13 -113 38 -185 46 -428 46 -134 1 -244 0 -245 -1z"/>
<path d="M3665 2140 c-29 -11 -38 -24 -74 -114 -18 -44 -87 -206 -152 -360
-109 -256 -142 -332 -186 -436 -8 -19 -18 -44 -23 -55 -114 -254 -123 -285
-89 -309 34 -24 189 -23 217 1 11 10 53 95 92 188 39 94 80 190 91 214 11 24
29 67 40 95 11 28 27 65 34 81 47 105 65 146 65 150 0 2 11 28 24 57 13 29 49
114 80 188 32 74 66 154 76 176 32 69 34 90 12 112 -16 16 -34 20 -103 20 -46
0 -93 -4 -104 -8z"/>
<path d="M4407 2144 c-1 -2 -14 -5 -27 -7 -166 -31 -293 -98 -395 -209 -76
-82 -119 -155 -157 -263 -72 -210 -78 -409 -15 -545 89 -192 252 -272 534
-264 174 6 306 54 434 161 57 48 173 222 180 270 8 50 -7 61 -144 103 -73 23
-146 46 -163 51 -43 13 -61 3 -89 -50 -60 -119 -116 -163 -210 -166 -111 -4
-141 53 -121 229 9 79 35 161 72 223 46 79 159 123 238 93 30 -11 66 -65 66
-97 0 -13 10 -29 23 -38 22 -14 37 -12 183 20 184 41 214 51 215 74 7 101 -56
245 -140 319 -75 65 -212 102 -379 99 -56 0 -104 -2 -105 -3z"/>
<path d="M1903 2119 c-24 -9 -36 -25 -53 -69 -7 -19 -23 -57 -35 -85 -12 -27
-39 -90 -60 -140 -21 -49 -48 -114 -61 -143 -13 -28 -35 -80 -50 -115 -14 -34
-31 -75 -39 -92 -7 -16 -52 -122 -100 -235 -48 -113 -90 -209 -95 -213 -4 -5
-11 11 -15 35 -4 23 -18 99 -31 168 -14 68 -27 136 -29 150 -2 14 -16 86 -30
160 -14 74 -28 146 -30 160 -4 21 -37 197 -61 320 -3 19 -13 45 -20 58 -14 22
-18 22 -220 22 -120 0 -213 -4 -224 -10 -21 -11 -76 -101 -180 -295 -9 -16
-27 -50 -42 -75 -37 -65 -280 -499 -338 -605 -15 -27 -47 -83 -70 -124 -46
-82 -53 -117 -24 -138 24 -17 393 -16 416 1 8 6 34 49 57 96 l41 85 163 0 162
0 11 -78 c6 -46 18 -85 27 -94 14 -14 43 -16 211 -14 127 1 196 -2 201 -8 8
-13 164 -15 197 -2 28 11 27 8 118 221 17 41 40 93 50 115 9 22 36 85 59 140
24 55 51 118 61 140 10 22 30 69 44 105 15 36 33 79 41 95 76 173 175 414 175
428 0 32 -40 46 -126 45 -45 -1 -90 -5 -101 -9z m-1022 -586 c0 -16 2 -39 4
-53 3 -14 7 -41 9 -60 l5 -35 -58 0 -58 0 41 87 c23 48 44 87 49 88 4 0 7 -12
8 -27z"/>
<path d="M2194 2095 c-18 -19 -41 -108 -59 -235 -2 -14 -13 -72 -24 -130 -11
-58 -23 -118 -26 -135 -2 -16 -7 -41 -10 -55 -3 -14 -8 -41 -11 -60 -3 -19
-10 -54 -15 -78 -5 -23 -12 -59 -15 -80 -3 -20 -7 -44 -9 -52 -2 -8 -7 -31
-10 -50 -3 -19 -8 -42 -10 -50 -2 -8 -7 -33 -10 -55 -3 -23 -8 -52 -10 -65
-29 -144 -29 -153 -5 -172 22 -18 43 -18 374 -14 193 3 360 7 371 9 11 3 43 8
70 11 89 12 149 34 211 80 106 77 169 186 181 311 9 96 -10 158 -66 214 l-46
47 46 42 c145 132 151 377 12 476 -88 62 -81 61 -518 62 -393 0 -400 0 -421
-21z m563 -314 c31 -3 11 -80 -25 -100 -20 -11 -159 -18 -168 -8 -3 3 0 30 6
59 l12 54 82 -2 c44 -1 86 -2 93 -3z m-30 -454 c16 -16 16 -19 0 -52 -10 -20
-29 -40 -44 -47 -30 -12 -216 -20 -209 -9 2 3 7 27 11 51 11 82 4 77 120 76
84 -1 108 -5 122 -19z"/>
</g>
</svg>
